<svg width="36" height="36" viewBox="0 0 36 36" fill="none" xmlns="http://www.w3.org/2000/svg">
<path d="M19.2941 2.41737C20.2656 2.03808 21.3551 2.47019 21.8195 3.38319L21.9045 3.57265L21.9055 3.5746L27.9142 18.851L23.6935 20.2406L22.1047 13.9027L22.0939 13.8607L22.0754 13.8207L18.1349 5.01894C17.7642 4.04694 18.1953 2.96395 19.1037 2.50233L19.2932 2.41835L19.2941 2.41737Z" fill="#EF9645" stroke="black"/>
<path d="M20.7562 0.71582C21.751 0.21478 22.9665 0.614619 23.4681 1.60938L23.472 1.61816L23.4769 1.62598L29.2454 12.082C29.2469 12.0859 29.2486 12.0901 29.2503 12.0947C29.2612 12.1236 29.2774 12.1669 29.2982 12.2227C29.3397 12.3342 29.3994 12.4969 29.473 12.7002C29.6201 13.1071 29.822 13.6761 30.0384 14.3252C30.4189 15.4668 30.8396 16.8379 31.098 18.0039L31.1985 18.4893C31.3458 19.2688 31.2488 20.5594 30.9573 21.9814C30.705 23.2126 30.3185 24.4876 29.8665 25.5283L29.6683 25.96C27.6627 30.0958 25.9847 32.2399 24.2923 33.4385C22.8185 34.4822 21.2923 34.8419 19.387 35.123L18.5462 35.2402C14.7848 35.7458 11.8719 35.0155 9.51007 33.1484L9.28351 32.9648C5.60197 29.8923 4.89013 25.5339 4.76202 24.3379L4.73566 24.0322C4.68729 22.9859 5.44447 22.0874 6.4505 21.9424L6.6546 21.9229H6.65753C7.70236 21.874 8.5987 22.6273 8.74933 23.6396L8.76886 23.8447V23.8467C8.77111 23.8915 8.87359 25.5074 9.56183 27.2969L9.70734 27.6562C9.85288 27.998 10.1143 28.2676 10.4251 28.4365L10.5618 28.5029L15.8314 30.7744L15.8821 30.7969L15.9359 30.8066C16.2115 30.8591 16.4951 30.8197 16.7444 30.6982L16.7698 30.6846L19.4437 29.1846L19.4427 29.1836C19.6561 29.0735 19.834 28.9086 19.9573 28.7041L19.9622 28.6963L19.9661 28.6895L22.8812 23.4609L22.8802 23.46C23.1483 22.9993 23.1078 22.4226 22.7757 22.0049L22.7659 21.9912L22.7532 21.9785C22.7525 21.9778 22.7516 21.976 22.7503 21.9746C22.7476 21.9717 22.7436 21.9674 22.7386 21.9619C22.7282 21.9505 22.7126 21.9339 22.6927 21.9121C22.6527 21.8684 22.5946 21.804 22.5198 21.7227C22.3701 21.5597 22.1552 21.327 21.8948 21.0479C21.3744 20.4898 20.6698 19.7449 19.9368 18.998C19.2053 18.2527 18.4391 17.499 17.7952 16.9277C17.4743 16.643 17.1742 16.3952 16.9193 16.2148C16.7923 16.125 16.6668 16.0446 16.5482 15.9844C16.4686 15.944 16.362 15.8965 16.2425 15.873L16.1194 15.8594C15.8294 15.8501 15.4907 15.9195 15.1614 16.0137C14.8225 16.1106 14.452 16.2459 14.0843 16.3955C13.5323 16.6201 12.9688 16.8836 12.5003 17.1152L12.0667 17.334C12.002 17.3673 11.9566 17.4084 11.9417 17.4219C11.9194 17.442 11.899 17.4625 11.8831 17.4795C11.8511 17.5138 11.8165 17.5542 11.7825 17.5957C11.7134 17.6801 11.6274 17.7918 11.5335 17.917C11.3448 18.1685 11.1098 18.4945 10.8802 18.8164C10.65 19.1391 10.423 19.461 10.2513 19.7051C10.1652 19.8275 10.0933 19.9301 10.0413 20.0039C10 20.0625 9.97919 20.0905 9.97296 20.0996C9.29887 20.8974 8.14153 21.0464 7.29718 20.4736L7.13214 20.3496V20.3486C6.2775 19.6339 6.16442 18.3621 6.88019 17.5068L6.88898 17.4961L6.89679 17.4854L9.20929 14.3994L9.21027 14.3984C9.26737 14.3218 9.33909 14.2625 9.42706 14.2188L9.42609 14.2178L15.2767 11.6611L15.2884 11.6553C15.7353 11.4457 16.004 11.3878 16.2103 11.3975C16.4102 11.4069 16.6182 11.4825 16.9437 11.6855L16.9534 11.6914L16.9622 11.6973C16.9627 11.6975 16.9639 11.6975 16.9651 11.6982C16.9677 11.6997 16.9719 11.7026 16.9778 11.7061C16.9902 11.7132 17.0102 11.7245 17.0364 11.7402C17.089 11.7718 17.1692 11.8208 17.2757 11.8887C17.4889 12.0246 17.808 12.2364 18.2239 12.5342C18.952 13.0555 19.9768 13.8415 21.2503 14.9502L21.8109 15.4453C23.2205 16.7058 24.7463 18.066 25.8206 19.0576L27.0638 20.2051L26.6439 18.5664V18.5654C26.6437 18.5648 26.6432 18.5637 26.6429 18.5625C26.6422 18.5599 26.6412 18.5558 26.64 18.5508C26.6373 18.5404 26.6333 18.5248 26.6282 18.5049C26.618 18.4649 26.6024 18.4065 26.5833 18.332C26.545 18.1825 26.4908 17.9684 26.4251 17.7119C26.2936 17.1988 26.1175 16.5142 25.9417 15.8291C25.7659 15.1443 25.5905 14.4584 25.4573 13.9424C25.3908 13.6844 25.3349 13.4677 25.2952 13.3154C25.2755 13.2396 25.2586 13.1791 25.2474 13.1367C25.2418 13.1159 25.2373 13.0982 25.2337 13.085C25.232 13.0787 25.2299 13.0705 25.2278 13.0635C25.2269 13.0603 25.2253 13.054 25.223 13.0469C25.2219 13.0436 25.2194 13.0363 25.2161 13.0273C25.2144 13.0226 25.2092 13.0106 25.2064 13.0039L25.1771 12.9453L19.8597 3.42188C19.3929 2.49016 19.716 1.36782 20.5765 0.818359L20.7562 0.71582Z" fill="#FFDC5D" stroke="black"/>
</svg>
