<svg width="36" height="36" viewBox="0 0 36 36" fill="none" xmlns="http://www.w3.org/2000/svg">
<g clip-path="url(#clip0_2007_226)">
<path d="M26.5953 24.4732L24.4742 26.5943L20.231 22.3511L22.3521 20.23L26.5953 24.4732Z" fill="#9AAAB4" stroke="black"/>
<path d="M26.2438 23.4157C26.7929 22.8667 27.6616 22.8318 28.2507 23.3122L28.3649 23.4157L34.2429 29.2936V29.2946C35.5663 30.619 35.6083 32.7402 34.3688 34.113L34.2458 34.2438C32.9218 35.5686 30.7994 35.6097 29.4255 34.3679L29.2946 34.2438L23.4157 28.3649C22.83 27.7792 22.83 26.8296 23.4157 26.2438L26.2438 23.4157Z" fill="#66757F" stroke="black"/>
<path d="M13.5 0.5C20.6797 0.5 26.5 6.3203 26.5 13.5C26.5 20.6797 20.6797 26.5 13.5 26.5C6.3203 26.5 0.5 20.6797 0.5 13.5C0.5 6.3203 6.3203 0.5 13.5 0.5Z" fill="#8899A6" stroke="black"/>
<path d="M13.5 4.5C18.4706 4.5 22.5 8.52944 22.5 13.5C22.5 18.4706 18.4706 22.5 13.5 22.5C8.52944 22.5 4.5 18.4706 4.5 13.5C4.5 8.52944 8.52944 4.5 13.5 4.5Z" fill="#BBDDF5" stroke="black"/>
</g>
<defs>
<clipPath id="clip0_2007_226">
<rect width="36" height="36" fill="white"/>
</clipPath>
</defs>
</svg>
