<svg width="36" height="36" viewBox="0 0 36 36" fill="none" xmlns="http://www.w3.org/2000/svg">
<path d="M18 1.5C12.477 1.5 8 5.977 8 11.5V21.5H12V11.5C12 8.187 14.686 5.5 18 5.5C21.314 5.5 24 8.187 24 11.5V21.5H28V11.5C28 5.977 23.523 1.5 18 1.5Z" fill="#AAB8C2"/>
<path d="M27 11.5C27 6.52928 22.9707 2.5 18 2.5C13.0293 2.5 9 6.52928 9 11.5V20.5H11V11.5C11 7.63482 14.1336 4.5 18 4.5C21.8664 4.5 25 7.63482 25 11.5V20.5H27V11.5ZM28 21.5H24V11.5C24 8.187 21.314 5.5 18 5.5C14.686 5.5 12 8.187 12 11.5V21.5H8V11.5C8 5.977 12.477 1.5 18 1.5C23.523 1.5 28 5.977 28 11.5V21.5Z" fill="black"/>
<path d="M31 30.5C31 32.709 29.209 34.5 27 34.5H9C6.791 34.5 5 32.709 5 30.5V18.5C5 16.291 6.791 14.5 9 14.5H27C29.209 14.5 31 16.291 31 18.5V30.5Z" fill="#FFAC33"/>
<path d="M27 33.5V34.5H9V33.5H27ZM30 30.5V18.5C30 16.8433 28.6567 15.5 27 15.5H9C7.34328 15.5 6 16.8433 6 18.5V30.5C6 32.1567 7.34328 33.5 9 33.5V34.5C6.791 34.5 5 32.709 5 30.5V18.5C5 16.291 6.791 14.5 9 14.5H27C29.209 14.5 31 16.291 31 18.5V30.5C31 32.709 29.209 34.5 27 34.5V33.5C28.6567 33.5 30 32.1567 30 30.5Z" fill="black"/>
</svg>
