<svg width="36" height="36" viewBox="0 0 36 36" fill="none" xmlns="http://www.w3.org/2000/svg">
<path d="M18 1.5H19C19.1625 1.5 19.2512 1.53918 19.3008 1.57227C19.3535 1.60744 19.3949 1.65795 19.4277 1.72363C19.4615 1.79122 19.481 1.86481 19.4912 1.92578C19.496 1.95476 19.498 1.97809 19.499 1.99219L19.5 2.00586V34C19.5 34.1625 19.4608 34.2512 19.4277 34.3008C19.3926 34.3535 19.3421 34.3949 19.2764 34.4277C19.2088 34.4615 19.1352 34.481 19.0742 34.4912C19.0452 34.496 19.0219 34.498 19.0078 34.499C19.0009 34.4995 18.9956 34.5 18.9941 34.5H18C17.6503 34.5 17.2524 34.3174 16.9023 34.084C16.7354 33.9727 16.5951 33.8604 16.4971 33.7764C16.4484 33.7347 16.4104 33.7008 16.3857 33.6777C16.3736 33.6664 16.3649 33.6577 16.3594 33.6523L16.3535 33.6465V33.6455H16.3525L8.20703 25.5H1.99414C1.98538 25.4997 1.96979 25.4985 1.94922 25.4971C1.90782 25.4941 1.84543 25.4882 1.76953 25.4756C1.6148 25.4498 1.41621 25.399 1.22363 25.3027C1.03295 25.2074 0.857437 25.0723 0.728516 24.8789C0.601681 24.6887 0.5 24.4125 0.5 24V12C0.5 11.5875 0.601681 11.3113 0.728516 11.1211C0.857437 10.9277 1.03295 10.7926 1.22363 10.6973C1.41621 10.601 1.6148 10.5502 1.76953 10.5244C1.84543 10.5118 1.90782 10.5059 1.94922 10.5029C1.96979 10.5015 1.98538 10.5003 1.99414 10.5H8.20703L16.3594 2.34766C16.3649 2.3423 16.3736 2.33355 16.3857 2.32227C16.4104 2.29924 16.4484 2.26535 16.4971 2.22363C16.5951 2.13957 16.7354 2.02729 16.9023 1.91602C17.2524 1.68262 17.6503 1.5 18 1.5Z" fill="#8899A6" stroke="black"/>
<path d="M18 1.5H19C19.1625 1.5 19.2512 1.53918 19.3008 1.57227C19.3535 1.60744 19.3949 1.65795 19.4277 1.72363C19.4615 1.79122 19.481 1.86481 19.4912 1.92578C19.496 1.95476 19.498 1.97809 19.499 1.99219L19.5 2.00586V34C19.5 34.1625 19.4608 34.2512 19.4277 34.3008C19.3926 34.3535 19.3421 34.3949 19.2764 34.4277C19.2088 34.4615 19.1352 34.481 19.0742 34.4912C19.0452 34.496 19.0219 34.498 19.0078 34.499C19.0009 34.4995 18.9956 34.5 18.9941 34.5H18C17.6503 34.5 17.2524 34.3174 16.9023 34.084C16.7354 33.9727 16.5951 33.8604 16.4971 33.7764C16.4484 33.7347 16.4104 33.7008 16.3857 33.6777C16.3736 33.6664 16.3649 33.6577 16.3594 33.6523L16.3535 33.6465V33.6455H16.3525L8.5 25.793V10.207L16.3594 2.34766C16.3649 2.3423 16.3736 2.33355 16.3857 2.32227C16.4104 2.29924 16.4484 2.26535 16.4971 2.22363C16.5951 2.13957 16.7354 2.02729 16.9023 1.91602C17.2524 1.68262 17.6503 1.5 18 1.5Z" fill="#CCD6DD" stroke="black"/>
<path d="M28.66 4.76298C28.7984 4.6001 29.0307 4.56087 29.2147 4.66239L29.2899 4.71415C33.2016 8.04999 35.446 12.9156 35.4461 18.0628C35.4461 23.21 33.2015 28.0756 29.2908 31.4104C29.2041 31.4841 29.1017 31.5188 28.9998 31.5188C28.8732 31.5188 28.7481 31.4658 28.66 31.3626H28.6609C28.5205 31.1977 28.52 30.9614 28.6473 30.7981L28.7098 30.7337C32.4243 27.5675 34.5526 22.9478 34.5526 18.0628C34.5525 13.3302 32.5537 8.84766 29.0516 5.69364L28.7088 5.39286C28.5453 5.25322 28.508 5.01973 28.6082 4.83817L28.659 4.76395L28.66 4.76298Z" fill="#8899A6" stroke="black"/>
<path d="M26.0316 7.76678C26.1822 7.58727 26.4507 7.56166 26.6351 7.71404V7.71502C29.6823 10.2762 31.43 14.0231 31.43 17.9992C31.4299 21.8959 29.7585 25.5608 26.8304 28.1154L26.5433 28.3596L26.5413 28.3605C26.4611 28.4273 26.3661 28.4592 26.2698 28.4592C26.1759 28.4591 26.0847 28.4295 26.0091 28.3713L25.9388 28.3029C25.8066 28.1428 25.8091 27.9163 25.9349 27.7609L25.9964 27.6994C28.9031 25.3006 30.5715 21.7645 30.5716 17.9992C30.5716 14.2783 28.9353 10.7681 26.0823 8.37127H26.0833C25.9246 8.23768 25.8868 8.01372 25.9818 7.83904L26.0306 7.76775L26.0316 7.76678Z" fill="#8899A6" stroke="black"/>
<path d="M23.2482 10.6726C23.4027 10.4823 23.6632 10.4337 23.8683 10.5398L23.9523 10.5954C26.2075 12.4106 27.5001 15.1084 27.5002 17.9997C27.5002 20.6755 26.3877 23.1955 24.4289 24.9948L24.0256 25.3444L24.0246 25.3454C23.9325 25.4217 23.8212 25.4587 23.7092 25.4587C23.5992 25.4587 23.4911 25.4243 23.4025 25.3562L23.3215 25.2771V25.2761C23.1679 25.0892 23.1723 24.8253 23.3185 24.6452L23.3908 24.573C25.367 22.9491 26.5002 20.5524 26.5002 17.9997C26.5001 15.575 25.4824 13.3002 23.6935 11.6882L23.3254 11.3747V11.3737L23.2531 11.3034C23.1054 11.1252 23.0975 10.8612 23.2482 10.6726Z" fill="#8899A6" stroke="black"/>
</svg>
