<svg width="36" height="36" viewBox="0 0 36 36" fill="none" xmlns="http://www.w3.org/2000/svg">
<g clip-path="url(#clip0_2007_225)">
<path d="M4 10.5H32C33.9329 10.5 35.5 12.0671 35.5 14V32C35.5 33.9329 33.9329 35.5 32 35.5H4C2.06714 35.5 0.5 33.9329 0.5 32V14C0.5 12.0671 2.06714 10.5 4 10.5Z" fill="#CCD6DD" stroke="black"/>
<path d="M11.95 22.636L0.636996 33.949C0.609996 33.977 0.599996 34.012 0.576996 34.04C0.916996 34.61 1.391 35.083 1.961 35.424C1.99 35.401 2.024 35.391 2.051 35.364L13.365 24.05C13.755 23.659 13.755 23.027 13.365 22.636C12.973 22.245 12.341 22.245 11.95 22.636ZM35.423 34.04C35.402 34.012 35.39 33.977 35.363 33.95L24.051 22.636C23.659 22.245 23.027 22.245 22.636 22.636C22.245 23.028 22.245 23.66 22.636 24.05L33.949 35.364C33.975 35.39 34.011 35.401 34.039 35.424C34.61 35.084 35.083 34.61 35.423 34.04" fill="#99AAB5"/>
<path d="M32 10H4C1.791 10 0 11.791 0 14V15.03L14.528 29.526C16.422 31.42 19.516 31.42 21.412 29.526L36 15.009V14C36 11.791 34.209 10 32 10Z" fill="#99AAB5"/>
<path d="M3.99973 10.5H31.9997C33.2622 10.5 34.3612 11.1763 34.9763 12.1865L20.4743 26.6885C19.1513 28.0123 17.029 28.0539 15.655 26.8125L15.5241 26.6885L1.02316 12.1865C1.59611 11.2454 2.58959 10.5945 3.74289 10.5098L3.99973 10.5Z" fill="#E1E8ED" stroke="black"/>
<path d="M16.0002 0.5H20.0002C20.8288 0.500134 21.5002 1.17206 21.5002 2V7.5H26.7161C26.9854 7.50001 27.1667 7.53498 27.2756 7.57715C27.3231 7.59555 27.3484 7.6128 27.3616 7.62305C27.3599 7.63669 27.3569 7.6613 27.3411 7.69922C27.3103 7.77322 27.2486 7.87494 27.1399 8.00098L27.0139 8.13574L19.1516 15.998C18.5237 16.6259 17.519 16.6656 16.844 16.1162L16.7131 15.998L8.85083 8.13574C8.66144 7.94614 8.56483 7.79803 8.52368 7.69922C8.50788 7.66126 8.50385 7.6367 8.5022 7.62305C8.51507 7.61287 8.54079 7.5959 8.58911 7.57715C8.6978 7.53503 8.87879 7.50003 9.14771 7.5H14.5002V2C14.5002 1.17214 15.1724 0.5 16.0002 0.5Z" fill="#55ACEE" stroke="black"/>
</g>
<defs>
<clipPath id="clip0_2007_225">
<rect width="36" height="36" fill="white"/>
</clipPath>
</defs>
</svg>
