<svg width="36" height="36" viewBox="0 0 36 36" fill="none" xmlns="http://www.w3.org/2000/svg">
<g clip-path="url(#clip0_2007_224)">
<path d="M4 0.5H32C33.9329 0.5 35.5 2.06714 35.5 4V22C35.5 23.9329 33.9329 25.5 32 25.5H4C2.06714 25.5 0.5 23.9329 0.5 22V4C0.5 2.06714 2.06714 0.5 4 0.5Z" fill="#CCD6DD" stroke="black"/>
<path d="M31.5 4.5V21.5H4.5V4.5H31.5Z" fill="#5DADEC" stroke="black"/>
<path d="M22.5 26.5V31.5H13.5V26.5H22.5Z" fill="#CCD6DD" stroke="black"/>
<path d="M22.5 26.5V27.5H13.5V26.5H22.5Z" fill="#9AAAB4" stroke="black"/>
<path d="M3 30.5H33C34.3809 30.5 35.5 31.6191 35.5 33C35.5 34.3809 34.3809 35.5 33 35.5H3C1.61914 35.5 0.5 34.3809 0.5 33C0.5 31.6191 1.61914 30.5 3 30.5Z" fill="#E1E8ED" stroke="black"/>
<path d="M32.5 32.5V33.5H31.5V32.5H32.5ZM28.5 32.5V33.5H27.5V32.5H28.5ZM24.5 32.5V33.5H23.5V32.5H24.5ZM20.5 32.5V33.5H19.5V32.5H20.5ZM16.5 32.5V33.5H15.5V32.5H16.5ZM12.5 32.5V33.5H11.5V32.5H12.5ZM8.5 32.5V33.5H7.5V32.5H8.5ZM4.5 32.5V33.5H3.5V32.5H4.5Z" fill="#F5F8FA" stroke="black"/>
</g>
<defs>
<clipPath id="clip0_2007_224">
<rect width="36" height="36" fill="white"/>
</clipPath>
</defs>
</svg>
