<svg width="36" height="36" viewBox="0 0 36 36" fill="none" xmlns="http://www.w3.org/2000/svg">
<g clip-path="url(#clip0_2007_224)">
<path d="M19.7041 0.5C23.6921 0.5 27.0313 3.33887 27.8652 7.14648L27.9434 7.50195L28.3047 7.53809C32.0376 7.90463 34.9678 11.099 34.9678 15C34.9678 17.9385 33.3001 20.474 30.8799 21.7031L30.3906 21.9521L30.6836 22.416C31.5218 23.7413 32.0127 25.3104 32.0127 27C32.0127 31.7018 28.2598 35.4999 23.6455 35.5C20.682 35.5 18.0803 33.9306 16.5928 31.5605L16.4014 31.2539L16.0498 31.3408C15.637 31.4423 15.2132 31.5 14.7783 31.5C13.2252 31.5 11.8656 31.0982 10.9062 30.3486C9.96176 29.6106 9.36719 28.5077 9.36719 27C9.36719 26.8797 9.38177 26.7922 9.39551 26.6123L9.42773 26.1865L9.0127 26.0879C7.12315 25.6379 4.48811 24.6936 1.74023 22.7207C2.45053 22.8028 3.3467 22.902 4.3877 22.998C7.10703 23.249 10.8176 23.5 14.7783 23.5H15.2783V22.9844C15.2784 22.9727 15.2789 22.9544 15.2793 22.9316C15.28 22.8861 15.2812 22.8198 15.2842 22.7402C15.2902 22.5798 15.302 22.368 15.3252 22.1553C15.349 21.9374 15.3823 21.7412 15.4248 21.6025C15.4463 21.5323 15.4637 21.4992 15.4688 21.4912C15.4775 21.4774 15.4401 21.547 15.3311 21.582L15.2139 20.6074C9.14229 20.1743 5.40114 19.1563 3.19336 18.2627C2.73224 18.0761 2.33841 17.8939 2.00391 17.7246C2.54442 17.7778 3.18053 17.8374 3.90039 17.8955C6.37361 18.0951 9.83586 18.2949 13.793 18.2949C14.2462 18.2949 14.592 18.2891 14.835 18.2861L15.2627 18.2803L15.3232 17.8574C15.3372 17.7607 15.3545 17.6152 15.373 17.46C15.3921 17.3005 15.413 17.1216 15.4375 16.9453C15.4621 16.7682 15.4893 16.5995 15.5176 16.46C15.5316 16.3906 15.5449 16.3327 15.5576 16.2871C15.5639 16.2646 15.5696 16.2465 15.5742 16.2334L15.582 16.2148L15.916 15.5117L15.1377 15.5C10.0069 15.4239 6.28351 14.44 3.85352 13.4844C3.22978 13.2391 2.69131 12.9947 2.23535 12.7686C5.70378 13.0602 9.34063 12.966 11.9707 12.8154L13.0664 12.752L12.2998 11.9668C11.9616 11.6204 11.7136 11.0642 11.5537 10.4092C11.3963 9.76414 11.3379 9.07836 11.3379 8.53125C11.3379 3.86426 15.0543 0.50016 19.7041 0.5Z" fill="#BDDDF4" stroke="black"/>
</g>
<defs>
<clipPath id="clip0_2007_224">
<rect width="36" height="36" fill="white"/>
</clipPath>
</defs>
</svg>
