<svg width="36" height="36" viewBox="0 0 36 36" fill="none" xmlns="http://www.w3.org/2000/svg">
<path d="M18.0048 4.5C20.9364 4.5 24.8217 5.23514 27.9599 7.52832C31.072 9.80259 33.5048 13.6481 33.5048 20C33.5048 26.5247 33.5028 30.4714 33.1357 32.7969C32.9517 33.9619 32.6882 34.6257 32.3622 35C32.066 35.34 31.6645 35.5 31.0048 35.5C30.332 35.5 29.5774 35.3311 28.7021 35.0547C27.8211 34.7765 26.8801 34.4107 25.7968 34.0283C23.6541 33.2721 21.0899 32.5 18.0048 32.5C14.9195 32.5 12.377 33.2721 10.245 34.0283C9.16752 34.4105 8.22748 34.7768 7.34366 35.0547C6.46597 35.3306 5.69998 35.5 5.00479 35.5C4.75668 35.4999 4.52169 35.3948 4.28311 35.1367C4.03535 34.8685 3.80229 34.4527 3.59464 33.8896C3.17968 32.7645 2.91393 31.1917 2.74893 29.4531C2.41969 25.9835 2.50479 22.0167 2.50479 20C2.50479 13.6481 4.93755 9.80259 8.04971 7.52832C11.1879 5.23505 15.0731 4.50003 18.0048 4.5Z" fill="#292F33" stroke="black"/>
<path d="M18.005 4.624C24.2459 4.624 29.505 11.1881 29.505 19.5625C29.5048 27.9366 24.2458 34.5 18.005 34.5C11.7641 34.5 6.50517 27.9366 6.50497 19.5625C6.50497 11.1881 11.764 4.624 18.005 4.624Z" fill="#F7DECE" stroke="black"/>
<path d="M18.005 31C15.658 31 14.43 29.84 14.298 29.707C13.907 29.316 13.907 28.684 14.298 28.293C14.685 27.905 15.311 27.903 15.702 28.283C15.753 28.33 16.508 29 18.005 29C19.524 29 20.278 28.31 20.31 28.281C20.709 27.907 21.337 27.918 21.718 28.31C22.097 28.703 22.098 29.321 21.712 29.707C21.58 29.84 20.352 31 18.005 31Z" fill="#DF1F32"/>
<path d="M19.005 26H17.005C16.453 26 16.005 25.553 16.005 25C16.005 24.447 16.453 24 17.005 24H19.005C19.558 24 20.005 24.447 20.005 25C20.005 25.553 19.558 26 19.005 26Z" fill="#C1694F"/>
<path d="M33.4974 24.5H33.4867C33.4908 24.437 33.4945 24.3729 33.4974 24.3076C33.4971 24.3721 33.4977 24.4362 33.4974 24.5ZM18.0052 2.5C23.7885 2.50013 33.5052 7.33217 33.5052 20C33.5052 21.3255 33.5016 22.5428 33.4984 23.665C33.4842 23.1795 33.4399 22.7877 33.3607 22.4766C33.2657 22.1034 33.1065 21.7794 32.8294 21.5791C32.5349 21.3664 32.2097 21.3646 31.9525 21.4189C31.7073 21.4707 31.4685 21.5843 31.2816 21.6777C31.0714 21.7828 30.9199 21.8657 30.7728 21.9229C30.7055 21.949 30.6608 21.9588 30.6341 21.9639C30.6269 21.9498 30.6149 21.9314 30.6048 21.9033C30.5518 21.7557 30.5052 21.4801 30.5052 21C30.5052 18.8061 29.3977 17.1608 27.7826 16.084C26.1822 15.0171 24.0793 14.5 22.0052 14.5C20.1096 14.5 17.9354 13.7831 16.2015 13.04C15.342 12.6717 14.6044 12.3037 14.0824 12.0273C13.8215 11.8892 13.6147 11.7742 13.474 11.6943C13.4038 11.6545 13.3506 11.6225 13.3148 11.6016C13.297 11.5912 13.2835 11.5833 13.2747 11.5781C13.2704 11.5755 13.267 11.5735 13.265 11.5723L13.263 11.5713H13.2621L12.9271 11.3701L12.6517 11.6465L9.6517 14.6465C9.17329 15.1249 8.69275 15.5111 8.22202 15.8906C7.7585 16.2643 7.29243 16.6404 6.88901 17.0732C6.04776 17.9759 5.50522 19.0999 5.50522 21C5.50522 21.4232 5.45893 21.6481 5.4144 21.7559C5.4111 21.7638 5.40629 21.7697 5.40366 21.7754C5.37252 21.7709 5.31659 21.7593 5.2269 21.7266C5.0661 21.6679 4.92343 21.5957 4.70151 21.501C4.5086 21.4186 4.26269 21.3236 4.00815 21.2959C3.73622 21.2663 3.42385 21.3114 3.1517 21.541C2.89707 21.7559 2.74312 22.0787 2.64877 22.4619C2.55323 22.8502 2.50522 23.3552 2.50522 24C2.50522 24.1734 2.5127 24.3401 2.52377 24.5H2.51108C2.48411 22.689 2.50522 21.0721 2.50522 20C2.50522 7.332 12.222 2.5 18.0052 2.5Z" fill="#292F33" stroke="black"/>
<path d="M8.00497 6H28.005V5L25.005 4L23.005 1L20.005 2L18.005 0L16.005 2L13.005 1L11.005 4L8.00497 5V6Z" fill="#A7A9AC"/>
<path d="M18.005 5C18.5573 5 19.005 4.32843 19.005 3.5C19.005 2.67157 18.5573 2 18.005 2C17.4527 2 17.005 2.67157 17.005 3.5C17.005 4.32843 17.4527 5 18.005 5Z" fill="#F1F2F2"/>
<path d="M14.005 5C14.5573 5 15.005 4.55228 15.005 4C15.005 3.44772 14.5573 3 14.005 3C13.4527 3 13.005 3.44772 13.005 4C13.005 4.55228 13.4527 5 14.005 5Z" fill="#F1F2F2"/>
<path d="M22.005 5C22.5573 5 23.005 4.55228 23.005 4C23.005 3.44772 22.5573 3 22.005 3C21.4527 3 21.005 3.44772 21.005 4C21.005 4.55228 21.4527 5 22.005 5Z" fill="#F1F2F2"/>
<path d="M13.005 23C12.453 23 12.005 22.553 12.005 22V20C12.005 19.447 12.453 19 13.005 19C13.557 19 14.005 19.447 14.005 20V22C14.005 22.553 13.557 23 13.005 23ZM23.005 23C22.452 23 22.005 22.553 22.005 22V20C22.005 19.447 22.452 19 23.005 19C23.558 19 24.005 19.447 24.005 20V22C24.005 22.553 23.558 23 23.005 23Z" fill="#662113"/>
</svg>
