<svg width="36" height="36" viewBox="0 0 36 36" fill="none" xmlns="http://www.w3.org/2000/svg">
<path d="M8.02667 28.1063C8.02923 28.1229 8.03065 28.1399 8.03351 28.1571C8.08584 28.4711 8.19135 28.8976 8.40753 29.33C8.62469 29.7643 8.95834 30.2138 9.46808 30.5536C9.87531 30.8251 10.3764 31.0117 10.9847 31.078C10.8622 31.1359 10.7019 31.1941 10.5032 31.2489C9.66032 31.4814 8.33689 31.6063 6.9798 31.6063C5.62269 31.6063 4.29928 31.4814 3.45636 31.2489C3.25731 31.194 3.09656 31.136 2.97394 31.078C3.58265 31.0118 4.08408 30.8252 4.49152 30.5536C5.00124 30.2138 5.33491 29.7643 5.55206 29.33C5.76824 28.8976 5.87375 28.4711 5.92609 28.1571C5.92895 28.1399 5.93036 28.1229 5.93292 28.1063H8.02667ZM22.0267 28.1063C22.0292 28.1229 22.0306 28.1399 22.0335 28.1571C22.0858 28.4711 22.1914 28.8976 22.4075 29.33C22.6247 29.7643 22.9583 30.2138 23.4681 30.5536C23.8753 30.8251 24.3764 31.0117 24.9847 31.078C24.8622 31.1359 24.7019 31.1941 24.5032 31.2489C23.6603 31.4814 22.3369 31.6063 20.9798 31.6063C19.6227 31.6063 18.2993 31.4814 17.4564 31.2489C17.2573 31.194 17.0966 31.136 16.9739 31.078C17.5827 31.0118 18.0841 30.8252 18.4915 30.5536C19.0012 30.2138 19.3349 29.7643 19.5521 29.33C19.7682 28.8976 19.8738 28.4711 19.9261 28.1571C19.9289 28.1399 19.9304 28.1229 19.9329 28.1063H22.0267Z" fill="#99AAB5" stroke="black"/>
<path d="M32.6006 27.2762C33.5588 27.9177 34.1078 28.5694 34.3643 29.1639C34.6455 29.8161 34.5942 30.4362 34.291 30.9921C33.6626 32.1442 31.8805 33.1063 29.4795 33.1063H1.47949C1.42919 33.1062 1.28808 33.061 1.08887 32.8192C0.903726 32.5945 0.735703 32.2773 0.625977 31.9481C0.513562 31.6108 0.482163 31.3232 0.508789 31.1532C0.511849 31.1337 0.517245 31.1184 0.520508 31.1063H28.4795C29.3186 31.1063 29.9818 30.895 30.5107 30.536C31.0335 30.1813 31.3923 29.705 31.6641 29.2294C31.9306 28.7629 32.1343 28.255 32.3115 27.8563C32.4149 27.6237 32.509 27.4317 32.6006 27.2762Z" fill="#99AAB5" stroke="black"/>
<path d="M8.97485 3.50195C10.5782 3.51919 12.1664 3.66793 13.3401 3.92969C13.931 4.06149 14.3858 4.21547 14.6809 4.37695C14.9814 4.54143 14.9818 4.63555 14.9797 4.61523L14.9641 5.01953C14.8981 6.15893 14.6591 8.47378 15.0491 10.8135C15.4889 13.4524 16.7379 16.2847 19.9534 17.9072L20.2698 18.0605C21.8818 18.8046 23.6414 19.3001 25.3489 19.7188C27.075 20.142 28.7191 20.4804 30.1868 20.9199C31.6521 21.3587 32.8545 21.8753 33.6877 22.6074C34.3926 23.2267 34.8506 24.0151 34.9563 25.1064H0.983643C1.01887 20.8849 1.4936 17.5544 1.97388 14.4326C2.47249 11.1916 2.97973 8.15184 2.97974 4.60645C2.97974 4.59276 2.98583 4.47919 3.28931 4.30273C3.57853 4.13466 4.02762 3.97965 4.61646 3.85254C5.78545 3.6002 7.37041 3.48474 8.97485 3.50195Z" fill="#E6E7E8" stroke="black"/>
<path d="M10.4797 25.1063C13.4501 25.1063 13.6099 25.3464 16.1799 25.6034C18.6651 25.8519 23.3218 26.0963 34.8928 26.1044C34.6871 26.6874 34.1328 27.1063 33.4797 27.1063H33.4631L33.4465 27.1073H33.4436C33.4419 27.1074 33.439 27.1081 33.4358 27.1083L33.2795 27.118C33.1694 27.1248 33.0061 27.1347 32.7971 27.1464C32.3792 27.1697 31.7757 27.2002 31.0364 27.2313C29.5568 27.2936 27.533 27.3563 25.3547 27.3563C23.1749 27.3563 20.847 27.294 18.7581 27.1083C16.7877 26.9331 15.0712 26.6511 13.8938 26.2284L13.6653 26.1425C13.3267 26.007 13.044 25.9142 12.8059 25.8622C12.572 25.8111 12.3482 25.7919 12.1418 25.8339C11.9152 25.88 11.7379 25.9941 11.6106 26.1542C11.4992 26.2944 11.441 26.4521 11.4065 26.5507C11.3227 26.79 11.302 26.8671 11.2258 26.9384C11.168 26.9924 10.9979 27.1063 10.4797 27.1063H2.47974C1.65188 27.1063 0.979736 26.4342 0.979736 25.6063V25.1063H10.4797Z" fill="#E6E7E8" stroke="black"/>
<path d="M23.7587 18.6515V18.6525C23.9988 18.6873 24.1743 18.8854 24.1884 19.1173L24.1835 19.2189L23.9745 20.6759C23.9384 20.9264 23.7242 21.1066 23.4803 21.1066L23.41 21.1017H23.4091C23.1344 21.0619 22.9455 20.8083 22.9843 20.5353L22.9833 20.5343L23.1923 19.0782C23.2312 18.8085 23.4829 18.6162 23.7587 18.6515ZM20.6102 17.1241L20.7059 17.1603C20.9514 17.2842 21.051 17.5845 20.9276 17.8312L19.9276 19.8292C19.8398 20.0039 19.6638 20.1066 19.4784 20.1066C19.4042 20.1065 19.3279 20.0895 19.2557 20.0538H19.2567C19.0408 19.9459 18.9367 19.7025 18.9969 19.4777L19.0331 19.3829L20.0331 17.3839C20.1413 17.1683 20.3842 17.064 20.6102 17.1241ZM17.12 15.2609C17.2888 15.0868 17.5522 15.0609 17.7479 15.1847L17.828 15.2472C18.0013 15.414 18.0282 15.6772 17.9032 15.8741L17.8397 15.9542L16.1532 17.7032C16.0546 17.8048 15.9233 17.8565 15.7919 17.8566C15.6975 17.8566 15.6041 17.83 15.5223 17.7775L15.4452 17.7159H15.4442C15.2707 17.5488 15.2442 17.2851 15.369 17.089L15.4325 17.0099L17.12 15.2609Z" fill="#DD2E44" stroke="black"/>
</svg>
