<svg width="168" height="28" viewBox="0 0 168 28" fill="none" xmlns="http://www.w3.org/2000/svg">
<g clip-path="url(#clip0_0_266)">
<path fill-rule="evenodd" clip-rule="evenodd" d="M4.72717 5.74956C4.72717 2.57417 7.2183 0 10.2913 0H25.2447C28.3178 0 30.8089 2.57417 30.8089 5.74956V21.2015C30.8089 24.3769 28.3178 26.9511 25.2447 26.9511H10.2913C7.2183 26.9511 4.72717 24.3769 4.72717 21.2015V16.8444L0 13.3072L4.72717 9.76993V5.74956ZM25.1037 13.4756C25.1037 17.6618 21.8194 21.0556 17.7682 21.0556C13.7169 21.0556 10.4327 17.6618 10.4327 13.4756C10.4327 9.28928 13.7169 5.89561 17.7682 5.89561C21.8194 5.89561 25.1037 9.28928 25.1037 13.4756Z" fill="url(#paint0_linear_0_266)"/>
<path fill-rule="evenodd" clip-rule="evenodd" d="M17.1934 10.1462C17.1934 11.6567 16.0085 12.8811 14.5468 12.8811C13.6985 12.8811 12.9433 12.4687 12.459 11.8272C12.3074 12.3493 12.226 12.9026 12.226 13.4756C12.226 16.6386 14.7073 19.2027 17.7683 19.2027C20.8293 19.2027 23.3107 16.6386 23.3107 13.4756C23.3107 10.3126 20.8293 7.74854 17.7683 7.74854C17.214 7.74854 16.6789 7.83261 16.1739 7.98907C16.7944 8.48957 17.1934 9.26976 17.1934 10.1462ZM19.9065 17.2213C20.6373 17.2213 21.2298 16.609 21.2298 15.8539C21.2298 15.0986 20.6373 14.4864 19.9065 14.4864C19.1756 14.4864 18.5831 15.0986 18.5831 15.8539C18.5831 16.609 19.1756 17.2213 19.9065 17.2213Z" fill="#303030"/>
<path fill-rule="evenodd" clip-rule="evenodd" d="M88.3795 1.15283H92.0411V9.82546C92.3493 9.64909 92.6735 9.4917 93.0137 9.35332C94.0515 8.93121 95.2052 8.72016 96.475 8.72016C97.7336 8.72016 98.8763 8.93121 99.903 9.35332C100.941 9.77545 101.824 10.3744 102.553 11.1502C103.292 11.9259 103.861 12.8729 104.258 13.9909C104.656 15.1089 104.855 16.3581 104.855 17.7387C104.855 19.1304 104.656 20.3854 104.258 21.5034C103.861 22.6214 103.292 23.5741 102.553 24.3612C101.824 25.1484 100.941 25.7531 99.903 26.1752C98.8763 26.5973 97.7336 26.8084 96.475 26.8084C95.2052 26.8084 94.0515 26.5973 93.0137 26.1752C92.5803 25.9989 92.1729 25.7908 91.7915 25.5509V26.7793H88.3795V1.15283ZM96.475 23.5569C97.8881 23.5569 98.9314 23.0664 99.6049 22.0852C100.289 21.1041 100.632 19.6666 100.632 17.7728C100.632 15.879 100.289 14.4358 99.6049 13.4433C98.9314 12.4507 97.8881 11.9545 96.475 11.9545C95.0396 11.9545 93.9742 12.4565 93.2788 13.4604C92.5942 14.453 92.2519 15.8904 92.2519 17.7728C92.2519 19.6553 92.5942 21.0928 93.2788 22.0852C93.9742 23.0664 95.0396 23.5569 96.475 23.5569ZM118.663 14.2648C118.817 14.7441 118.895 15.2574 118.895 15.805H111.177C111.365 14.5272 111.796 13.5404 112.469 12.8445C113.154 12.1485 114.086 11.8006 115.268 11.8006C115.875 11.8006 116.405 11.909 116.858 12.1257C117.321 12.3311 117.702 12.6163 118 12.9814C118.298 13.3464 118.519 13.7743 118.663 14.2648ZM111.558 20.6992C111.315 20.0376 111.161 19.2561 111.094 18.3548H121.611C121.986 18.3548 122.24 18.2464 122.372 18.0297C122.505 17.8015 122.571 17.3679 122.571 16.7291C122.571 15.4627 122.383 14.339 122.008 13.3579C121.644 12.3653 121.136 11.5325 120.484 10.8594C119.833 10.1749 119.055 9.65578 118.149 9.30211C117.244 8.94846 116.256 8.77162 115.185 8.77162C113.915 8.77162 112.773 8.9998 111.757 9.45613C110.752 9.91247 109.897 10.5342 109.19 11.3214C108.494 12.0972 107.959 13.0156 107.584 14.0765C107.208 15.1261 107.021 16.2499 107.021 17.4479C107.021 18.988 107.236 20.3456 107.666 21.5206C108.097 22.6843 108.688 23.6654 109.438 24.4641C110.189 25.2512 111.072 25.8503 112.088 26.2609C113.104 26.6602 114.202 26.8598 115.384 26.8598C115.98 26.8598 116.593 26.8142 117.222 26.723C117.862 26.6317 118.486 26.4777 119.093 26.2609C119.712 26.0327 120.302 25.7362 120.865 25.371C121.428 24.9946 121.936 24.5326 122.389 23.9849L121.213 22.4448C121.048 22.1824 120.794 22.0512 120.451 22.0512C120.197 22.0512 119.932 22.131 119.656 22.2908C119.392 22.4505 119.077 22.6273 118.712 22.8212C118.359 23.0151 117.94 23.1921 117.454 23.3517C116.979 23.5114 116.41 23.5914 115.748 23.5914C115.086 23.5914 114.478 23.4886 113.926 23.2832C113.385 23.0665 112.916 22.747 112.519 22.3249C112.121 21.8915 111.801 21.3495 111.558 20.6992ZM144.136 9.16606V26.7239H148.226V13.8721C148.668 13.3473 149.143 12.9366 149.651 12.64C150.17 12.3319 150.727 12.1779 151.323 12.1779C152.207 12.1779 152.875 12.446 153.327 12.9822C153.792 13.5184 154.023 14.374 154.023 15.5492V26.7239H158.13V15.5492C158.13 15.0015 158.207 14.5167 158.362 14.0946C158.516 13.6724 158.726 13.3245 158.992 13.0507C159.267 12.7655 159.582 12.5487 159.935 12.4004C160.299 12.2521 160.692 12.1779 161.111 12.1779C162.028 12.1779 162.723 12.4631 163.197 13.0336C163.673 13.5926 163.91 14.4312 163.91 15.5492V26.7239H168V15.5492C168 14.4881 167.867 13.5469 167.603 12.7255C167.348 11.9041 166.973 11.2082 166.477 10.6378C165.98 10.0673 165.368 9.63381 164.639 9.3372C163.91 9.04058 163.077 8.89226 162.138 8.89226C161.597 8.89226 161.056 8.95501 160.515 9.08051C159.985 9.206 159.482 9.39994 159.008 9.66233C158.534 9.92473 158.097 10.267 157.699 10.6891C157.302 11.0998 156.97 11.5961 156.706 12.1779C156.363 11.1854 155.844 10.3925 155.149 9.79924C154.465 9.19459 153.587 8.89226 152.516 8.89226C152.009 8.89226 151.539 8.95501 151.108 9.08051C150.689 9.19459 150.291 9.3543 149.916 9.55966C149.551 9.76501 149.204 10.0103 148.872 10.2955C148.618 10.522 148.371 10.7666 148.131 11.0291V9.18471H146.871C146.798 9.17228 146.72 9.16606 146.637 9.16606H144.136ZM129.614 26.1753C130.641 26.5974 131.784 26.8084 133.042 26.8084C134.312 26.8084 135.466 26.5974 136.504 26.1752C136.906 26.0114 137.287 25.821 137.645 25.6039V26.7789H141.14V20.1299C141.171 19.6359 141.162 19.1202 141.151 18.5868V18.5864V18.5862C141.146 18.3139 141.14 18.0369 141.14 17.7557C141.14 17.6089 141.14 17.4616 141.142 17.3142V17.3135V17.3129V17.3122C141.147 16.063 141.154 14.7988 140.724 13.6218C140.315 12.5038 139.898 11.9545 139.17 11.1673C138.431 10.3802 137.542 9.77549 136.504 9.35338C135.466 8.93127 134.312 8.72022 133.042 8.72022C131.784 8.72022 130.641 8.93127 129.614 9.35338C128.576 9.77549 127.693 10.3802 126.964 11.1673C126.225 11.9545 125.656 12.9071 125.259 14.0252C124.861 15.1432 124.663 16.3982 124.663 17.79C124.663 19.1704 124.861 20.4197 125.259 21.5377C125.656 22.6557 126.225 23.6027 126.964 24.3784C127.693 25.1542 128.576 25.7531 129.614 26.1753ZM129.912 13.4433C130.586 12.4622 131.629 11.9716 133.042 11.9716C134.477 11.9716 135.543 12.4622 136.239 13.4433C136.923 14.4359 137.265 15.8733 137.265 17.7557C137.265 19.6382 136.923 21.0757 136.239 22.0682C135.543 23.0721 134.477 23.5741 133.042 23.5741C131.629 23.5741 130.586 23.0778 129.912 22.0854C129.228 21.0928 128.886 19.6497 128.886 17.7557C128.886 15.862 129.228 14.4244 129.912 13.4433ZM41.1124 26.7808V1.17917H37.0219V26.7808H41.1124ZM49.4275 26.7808V9.05106H45.3204V26.7808H49.4275ZM49.7753 4.9611C49.9188 4.64167 49.9906 4.29941 49.9906 3.93433C49.9906 3.55786 49.9188 3.20419 49.7753 2.87334C49.6317 2.54249 49.4385 2.25728 49.1956 2.0177C48.9637 1.77812 48.6878 1.58988 48.3676 1.45297C48.0475 1.30466 47.7051 1.23051 47.3408 1.23051C46.9876 1.23051 46.6508 1.30466 46.3306 1.45297C46.0214 1.58988 45.751 1.77812 45.5191 2.0177C45.2872 2.25728 45.0996 2.54249 44.9561 2.87334C44.8236 3.20419 44.7574 3.55786 44.7574 3.93433C44.7574 4.29941 44.8236 4.64167 44.9561 4.9611C45.0996 5.28054 45.2872 5.56005 45.5191 5.79963C45.751 6.0392 46.0214 6.23316 46.3306 6.38146C46.6508 6.51837 46.9876 6.58681 47.3408 6.58681C47.7051 6.58681 48.0475 6.51837 48.3676 6.38146C48.6878 6.23316 48.9637 6.0392 49.1956 5.79963C49.4385 5.56005 49.6317 5.28054 49.7753 4.9611ZM68.9164 9.23808L62.1761 26.7958H58.4666L51.7263 9.23808H55.1047C55.4139 9.23808 55.6677 9.31223 55.8665 9.46055C56.0762 9.60887 56.2143 9.7971 56.2805 10.0253L59.5595 18.7972C59.7362 19.3449 59.8908 19.8811 60.0233 20.4058C60.1558 20.9307 60.2716 21.4554 60.3711 21.9802C60.4815 21.4554 60.6029 20.9307 60.7354 20.4058C60.8679 19.8811 61.0279 19.3449 61.2157 18.7972L64.5609 10.0253C64.6381 9.7971 64.7762 9.60887 64.9749 9.46055C65.1737 9.31223 65.4111 9.23808 65.6871 9.23808H68.9164ZM81.2937 14.2704C81.4483 14.7497 81.5257 15.263 81.5257 15.8106H73.8082C73.996 14.5328 74.4266 13.546 75.1001 12.8501C75.7845 12.1542 76.7175 11.8062 77.8988 11.8062C78.506 11.8062 79.036 11.9146 79.4887 12.1314C79.9523 12.3367 80.3333 12.6219 80.6313 12.987C80.9294 13.3521 81.1502 13.7799 81.2937 14.2704ZM74.1892 20.7048C73.9463 20.0432 73.7917 19.2617 73.7254 18.3604H84.2416C84.617 18.3604 84.8709 18.252 85.0034 18.0353C85.1359 17.8071 85.2021 17.3735 85.2021 16.7347C85.2021 15.4684 85.0144 14.3446 84.6391 13.3635C84.2746 12.3709 83.7668 11.5381 83.1154 10.865C82.464 10.1805 81.6857 9.66142 80.7804 9.30775C79.8751 8.95409 78.887 8.77725 77.816 8.77725C76.5464 8.77725 75.4037 9.00542 74.388 9.46177C73.3832 9.91811 72.5276 10.5399 71.8209 11.3271C71.1254 12.1028 70.5899 13.0212 70.2147 14.0823C69.8392 15.1319 69.6516 16.2555 69.6516 17.4535C69.6516 18.9936 69.8669 20.3512 70.2974 21.5264C70.728 22.69 71.3187 23.6712 72.0694 24.4697C72.8201 25.2569 73.7034 25.8559 74.7191 26.2665C75.7348 26.6659 76.8334 26.8655 78.0147 26.8655C78.6109 26.8655 79.2236 26.8199 79.853 26.7286C80.4933 26.6373 81.1172 26.4833 81.7243 26.2665C82.3426 26.0384 82.9333 25.7418 83.4963 25.3766C84.0593 25.0002 84.5673 24.5382 85.0199 23.9905L83.8441 22.4504C83.6785 22.188 83.4246 22.0568 83.0824 22.0568C82.8283 22.0568 82.5635 22.1366 82.2874 22.2964C82.0225 22.4561 81.7077 22.6329 81.3434 22.8268C80.9901 23.0208 80.5706 23.1977 80.0848 23.3574C79.6101 23.517 79.0414 23.597 78.379 23.597C77.7167 23.597 77.1094 23.4943 76.5573 23.289C76.0163 23.0721 75.5472 22.7528 75.1497 22.3307C74.7523 21.8971 74.4321 21.3551 74.1892 20.7048Z" fill="#303030"/>
</g>
<defs>
<linearGradient id="paint0_linear_0_266" x1="7.49845" y1="26.9511" x2="30.572" y2="1.67749" gradientUnits="userSpaceOnUse">
<stop stop-color="#574DCC"/>
<stop offset="1" stop-color="#579AFF"/>
</linearGradient>
</defs>
</svg>