<svg width="24" height="24" viewBox="0 0 24 24" xmlns="http://www.w3.org/2000/svg"><path d="M12.0001 3C15.8996 3 18.8956 5.22679 20.8546 7.31641C21.843 8.37071 22.5979 9.42095 23.1056 10.207C23.36 10.601 23.5538 10.9317 23.6857 11.166C23.7515 11.2831 23.8022 11.3767 23.837 11.4424C23.8544 11.4752 23.8685 11.501 23.878 11.5195C23.8828 11.5287 23.886 11.5365 23.8888 11.542C23.8902 11.5447 23.8918 11.547 23.8927 11.5488L23.8937 11.5508L23.8946 11.5518C23.8948 11.5521 23.8945 11.5528 23.0001 12C23.8945 12.4472 23.8948 12.4479 23.8946 12.4482L23.8937 12.4492L23.8927 12.4512C23.8918 12.453 23.8902 12.4553 23.8888 12.458C23.886 12.4635 23.8828 12.4713 23.878 12.4805C23.8685 12.499 23.8544 12.5248 23.837 12.5576C23.8022 12.6233 23.7515 12.7169 23.6857 12.834C23.5538 13.0683 23.36 13.399 23.1056 13.793C22.5979 14.579 21.843 15.6293 20.8546 16.6836C18.8956 18.7732 15.8996 21 12.0001 21C8.1006 21 5.10463 18.7732 3.14561 16.6836C2.15723 15.6293 1.40234 14.579 0.894635 13.793C0.640217 13.399 0.446376 13.0683 0.314557 12.834C0.24867 12.7169 0.197974 12.6233 0.16319 12.5576C0.145832 12.5248 0.131708 12.499 0.122174 12.4805C0.117455 12.4713 0.114218 12.4635 0.111432 12.458C0.110035 12.4553 0.108429 12.453 0.107526 12.4512L0.106549 12.4492L0.105573 12.4482C0.105389 12.4479 0.105677 12.4472 1.0001 12C0.105677 11.5528 0.105389 11.5521 0.105573 11.5518L0.106549 11.5508L0.107526 11.5488C0.108429 11.547 0.110035 11.5447 0.111432 11.542C0.114218 11.5365 0.117455 11.5287 0.122174 11.5195C0.131708 11.501 0.145832 11.4752 0.16319 11.4424C0.197974 11.3767 0.24867 11.2831 0.314557 11.166C0.446376 10.9317 0.640217 10.601 0.894635 10.207C1.40234 9.42095 2.15723 8.37071 3.14561 7.31641C5.10463 5.22679 8.1006 3 12.0001 3ZM12.0001 5C8.8997 5 6.39557 6.77327 4.6046 8.68359C3.71822 9.62906 3.03534 10.5791 2.57432 11.293C2.39507 11.5705 2.25092 11.8113 2.14171 12C2.25092 12.1887 2.39507 12.4295 2.57432 12.707C3.03534 13.4209 3.71822 14.3709 4.6046 15.3164C6.39557 17.2267 8.8997 19 12.0001 19C15.1005 19 17.6046 17.2267 19.3956 15.3164C20.282 14.3709 20.9649 13.4209 21.4259 12.707C21.605 12.4297 21.7483 12.1887 21.8575 12C21.7483 11.8113 21.605 11.5703 21.4259 11.293C20.9649 10.5791 20.282 9.62906 19.3956 8.68359C17.6046 6.77327 15.1005 5 12.0001 5ZM1.0001 12L0.105573 12.4473C-0.0351909 12.1657 -0.0351909 11.8343 0.105573 11.5527L1.0001 12ZM23.8946 11.5527C24.0354 11.8343 24.0354 12.1657 23.8946 12.4473L23.0001 12L23.8946 11.5527Z"/><path d="M14 12C14 10.8954 13.1046 10 12 10C10.8954 10 10 10.8954 10 12C10 13.1046 10.8954 14 12 14C13.1046 14 14 13.1046 14 12ZM16 12C16 14.2091 14.2091 16 12 16C9.79086 16 8 14.2091 8 12C8 9.79086 9.79086 8 12 8C14.2091 8 16 9.79086 16 12Z"/></svg>