<?xml version="1.0" encoding="utf-8"?><svg viewBox="0 0 28 28" xmlns="http://www.w3.org/2000/svg" xmlns:xlink="http://www.w3.org/1999/xlink"><style>:root>svg{display:none}:root>svg:target{display:block}</style><svg fill="none" viewBox="0 0 28 28" id="email" xmlns="http://www.w3.org/2000/svg"><path d="M.087 6.221A3.5 3.5 0 013.5 3.5h21a3.5 3.5 0 013.413 2.721L14 14.725.088 6.22zM0 8.22v12.432l10.155-6.227L0 8.22zm11.832 7.232L.334 22.5a3.5 3.5 0 003.166 2h21a3.5 3.5 0 003.164-2.002l-11.498-7.047L14 16.776l-2.168-1.325v.002zm6.013-1.025L28 20.652V8.22l-10.155 6.205v.002z" fill="#1A73E8"/></svg><svg viewBox="0 0 24 24" id="eye-close" xmlns="http://www.w3.org/2000/svg"><path d="M5.453 5.266a1 1 0 111.214 1.589 17.45 17.45 0 00-4.524 5.148 18.678 18.678 0 002.46 3.313c1.79 1.908 4.29 3.679 7.385 3.683a9.07 9.07 0 005.346-1.854l.084-.058a1 1 0 011.128 1.648l-.357.261a11.07 11.07 0 01-5.731 1.987l-.441.017H12c-3.9 0-6.896-2.227-8.855-4.316a20.677 20.677 0 01-2.83-3.85c-.067-.117-.117-.21-.152-.276l-.041-.078-.01-.022-.005-.007v-.002H.104c0-.001 0-.002.895-.449l-.895.448c-.145-.29-.14-.634.014-.92l.252-.456a19.45 19.45 0 015.082-5.806zM12.001 3c3.899 0 6.894 2.226 8.853 4.315a20.676 20.676 0 012.832 3.85c.065.117.116.21.15.276l.042.078.01.022.004.007.002.002c0 .001 0 .002-.894.449l.894-.448c.127.254.14.548.039.81l-.051.11a19.492 19.492 0 01-2.277 3.362l-.07.075a1 1 0 01-1.46-1.363l.29-.353a17.52 17.52 0 001.491-2.195 18.678 18.678 0 00-2.461-3.314C17.605 6.774 15.1 5 12 5h-.002a8.124 8.124 0 00-1.87.214l-.456-1.947A10.122 10.122 0 0112.002 3L12 3.001zM9.198 9.148a1 1 0 011.363 1.463 2 2 0 102.828 2.827 1 1 0 111.463 1.364 4 4 0 11-5.654-5.654zm.93-3.934a1 1 0 01-.456-1.947l.456 1.947z"/><path d="M.293.293A1 1 0 011.63.224l.076.069 22 22 .068.076a1 1 0 01-1.406 1.406l-.076-.068-22-22-.069-.076A1 1 0 01.293.293z"/></svg><svg viewBox="0 0 24 24" id="eye-open" xmlns="http://www.w3.org/2000/svg"><path d="M12 3c3.9 0 6.896 2.227 8.855 4.316a20.68 20.68 0 012.83 3.85c.067.117.117.21.152.276l.041.078.01.022.005.007v.002h.002c0 .001 0 .002-.895.449l.895.448-.001.001-.001.002-.004.007-.011.022-.041.078c-.035.065-.085.159-.151.276a20.683 20.683 0 01-2.831 3.85C18.895 18.774 15.9 21 12 21c-3.9 0-6.895-2.227-8.854-4.316a20.684 20.684 0 01-2.831-3.85c-.066-.117-.117-.21-.152-.276l-.04-.078-.012-.022-.003-.007-.001-.002H.106c0-.001 0-.002.894-.449a122.01 122.01 0 01-.894-.448v-.001l.002-.002.003-.007.011-.022.041-.078a18.489 18.489 0 01.731-1.235 20.681 20.681 0 012.252-2.89C5.105 5.226 8.1 3 12 3zm0 2C8.9 5 6.396 6.773 4.605 8.684A18.675 18.675 0 002.142 12a18.677 18.677 0 002.463 3.316C6.395 17.226 8.9 19 12 19c3.1 0 5.605-1.773 7.396-3.684A18.674 18.674 0 0021.858 12a18.673 18.673 0 00-2.462-3.316C17.605 6.774 15.1 5 12 5zM1 12l-.894.447a1 1 0 010-.894L1 12zm22.895-.447a1 1 0 010 .894L23 12l.895-.447z"/><path d="M14 12a2 2 0 10-4 0 2 2 0 004 0zm2 0a4 4 0 11-8 0 4 4 0 018 0z"/></svg><svg fill="none" viewBox="0 0 28 28" id="logo-google" xmlns="http://www.w3.org/2000/svg"><path d="M26.32 14.291c0-.91-.082-1.784-.233-2.625H14v4.97h6.907c-.304 1.599-1.214 2.952-2.579 3.862v3.232h4.165c2.427-2.24 3.827-5.53 3.827-9.439z" fill="#4285F4"/><path d="M14 26.834c3.465 0 6.37-1.144 8.493-3.104l-4.165-3.232c-1.143.77-2.602 1.237-4.328 1.237-3.337 0-6.172-2.252-7.187-5.285h-4.27v3.314c2.112 4.188 6.44 7.07 11.457 7.07z" fill="#34A853"/><path d="M6.814 16.439A7.69 7.69 0 016.405 14c0-.851.152-1.668.409-2.438V8.249h-4.27A12.675 12.675 0 001.167 14c0 2.077.502 4.025 1.377 5.752l3.325-2.59.945-.723z" fill="#FBBC05"/><path d="M14 6.277c1.89 0 3.57.653 4.911 1.913l3.675-3.675C20.358 2.438 17.465 1.167 14 1.167c-5.017 0-9.345 2.881-11.457 7.081l4.27 3.314C7.828 8.527 10.663 6.277 14 6.277z" fill="#EA4335"/></svg></svg>