<svg width="28" height="28" viewBox="0 0 28 28" fill="none" xmlns="http://www.w3.org/2000/svg">
<path d="M26.32 14.2915C26.32 13.3815 26.2383 12.5065 26.0867 11.6665H14V16.6365H20.9067C20.6033 18.2348 19.6933 19.5882 18.3283 20.4982V23.7298H22.4933C24.92 21.4898 26.32 18.1998 26.32 14.2915Z" fill="#4285F4"/>
<path d="M13.9996 26.8335C17.4646 26.8335 20.3696 25.6902 22.493 23.7302L18.328 20.4985C17.1846 21.2685 15.7263 21.7352 13.9996 21.7352C10.663 21.7352 7.82797 19.4835 6.81297 16.4502H2.54297V19.7635C4.65464 23.9519 8.98297 26.8335 13.9996 26.8335Z" fill="#34A853"/>
<path d="M6.81366 16.4385C6.55699 15.6685 6.40533 14.8519 6.40533 14.0002C6.40533 13.1485 6.55699 12.3319 6.81366 11.5619V8.24854H2.54366C1.66866 9.9752 1.16699 11.9235 1.16699 14.0002C1.16699 16.0769 1.66866 18.0252 2.54366 19.7519L5.86866 17.1619L6.81366 16.4385Z" fill="#FBBC05"/>
<path d="M13.9996 6.2765C15.8896 6.2765 17.5696 6.92984 18.9113 8.18984L22.5863 4.51484C20.358 2.43817 17.4646 1.1665 13.9996 1.1665C8.98297 1.1665 4.65464 4.04817 2.54297 8.24817L6.81297 11.5615C7.82797 8.52817 10.663 6.2765 13.9996 6.2765Z" fill="#EA4335"/>
</svg>
