<svg width="28" height="28" viewBox="0 0 28 28" fill="none" xmlns="http://www.w3.org/2000/svg">
<path d="M0.0875 6.22125C0.263932 5.44818 0.697647 4.75792 1.31761 4.26354C1.93758 3.76916 2.70705 3.49995 3.5 3.5H24.5C25.293 3.49995 26.0624 3.76916 26.6824 4.26354C27.3024 4.75792 27.7361 5.44818 27.9125 6.22125L14 14.7245L0.0875 6.22125ZM0 8.21975V20.6517L10.1552 14.4253L0 8.21975ZM11.8318 15.4525L0.33425 22.4998C0.618322 23.0987 1.06667 23.6048 1.62712 23.9589C2.18756 24.313 2.83706 24.5006 3.5 24.5H24.5C25.1628 24.5001 25.8121 24.3121 26.3722 23.9577C26.9323 23.6032 27.3803 23.0971 27.664 22.498L16.1665 15.4508L14 16.7755L11.8318 15.4508V15.4525ZM17.8447 14.427L28 20.6517V8.21975L17.8447 14.4253V14.427Z" fill="#1A73E8"/>
</svg>
