<svg width="24" height="24" viewBox="0 0 24 24" xmlns="http://www.w3.org/2000/svg"><path d="M5.45303 5.26565C5.89193 4.9305 6.51919 5.01433 6.8544 5.45315C7.18953 5.89203 7.10566 6.5193 6.6669 6.85452C4.83207 8.25562 3.29547 10.0064 2.14346 12.003C2.25247 12.1912 2.39583 12.431 2.57413 12.7071C3.03515 13.4209 3.71803 14.371 4.6044 15.3164C6.39312 17.2243 8.89319 18.9946 11.9882 18.9991C13.9222 18.9664 15.7955 18.3172 17.3339 17.1446L17.4179 17.0869C17.85 16.8218 18.4213 16.9222 18.7353 17.334C19.0699 17.7732 18.985 18.4006 18.5458 18.7354L18.1894 18.9961C16.5013 20.1794 14.5161 20.8675 12.4579 20.9834L12.0165 21C12.0111 21.0001 12.0054 21 11.9999 21C8.1004 21 5.10443 18.7732 3.14542 16.6836C2.15703 15.6293 1.40214 14.5791 0.894439 13.793C0.640014 13.399 0.44618 13.0683 0.314361 12.834C0.248467 12.7169 0.197778 12.6234 0.162994 12.5576C0.14563 12.5248 0.131513 12.499 0.121978 12.4805C0.117254 12.4713 0.114024 12.4635 0.111236 12.458C0.109839 12.4553 0.108233 12.453 0.10733 12.4512L0.106353 12.4492L0.105377 12.4483C0.105193 12.4479 0.105481 12.4472 0.999908 12L0.105377 12.4483C-0.0399246 12.1576 -0.0345816 11.8137 0.119049 11.5274L0.371002 11.0723C1.65931 8.81824 3.38683 6.84347 5.45303 5.26565ZM12.0009 3.001C15.8999 3.00138 18.8955 5.22699 20.8544 7.31643C21.8428 8.37073 22.5977 9.42098 23.1054 10.2071C23.3598 10.601 23.5536 10.9317 23.6855 11.166C23.7513 11.2832 23.802 11.3767 23.8368 11.4424C23.8542 11.4752 23.8683 11.501 23.8778 11.5196C23.8826 11.5287 23.8858 11.5365 23.8886 11.542C23.89 11.5448 23.8916 11.5471 23.8925 11.5489L23.8935 11.5508L23.8944 11.5518C23.8946 11.5522 23.8943 11.5528 22.9999 12L23.8944 11.5518C24.0213 11.8055 24.0337 12.1003 23.9325 12.3614L23.8817 12.4717C23.242 13.6686 22.4792 14.7956 21.6054 15.834L21.5351 15.9092C21.1712 16.2618 20.5923 16.2883 20.1962 15.9551C19.7736 15.5995 19.7195 14.9685 20.0751 14.5459L20.3642 14.1934C20.9168 13.5007 21.4148 12.7663 21.8564 11.9981C21.7473 11.8097 21.6042 11.5694 21.4257 11.293C20.9647 10.5792 20.2818 9.62908 19.3954 8.68362C17.6044 6.77331 15.1003 5.00003 11.9999 5.00003H11.998C11.3685 4.99855 10.7407 5.07044 10.1278 5.21389L9.67178 3.26663C10.4355 3.08787 11.2175 2.99821 12.0019 3.00003L12.0009 3.001ZM9.19815 9.14846C9.60215 8.77201 10.2347 8.79438 10.6112 9.19827C10.9877 9.60231 10.9654 10.2348 10.5614 10.6114C10.365 10.7944 10.2078 11.0155 10.0985 11.2608C9.98923 11.5061 9.93043 11.7715 9.92569 12.0401C9.92102 12.3085 9.96969 12.5754 10.0702 12.8242C10.1708 13.0732 10.3208 13.2994 10.5107 13.4893C10.7005 13.6792 10.9267 13.8291 11.1757 13.9297C11.4246 14.0302 11.6915 14.0789 11.9599 14.0742C12.2284 14.0695 12.4938 14.0107 12.7392 13.9014C12.9844 13.7921 13.2055 13.6349 13.3886 13.4385C13.7651 13.0345 14.3976 13.0122 14.8017 13.3887C15.2056 13.7652 15.2279 14.3978 14.8515 14.8018C14.4853 15.1948 14.0433 15.5099 13.5526 15.7285C13.0622 15.947 12.5328 16.0647 11.996 16.0742C11.4589 16.0837 10.9247 15.9854 10.4267 15.7842C9.92865 15.583 9.47639 15.2831 9.09659 14.9033C8.71679 14.5235 8.4169 14.0713 8.21573 13.5733C8.01455 13.0752 7.91621 12.541 7.92569 12.0039C7.93521 11.4671 8.05291 10.9377 8.27139 10.4473C8.49001 9.95664 8.80517 9.51466 9.19815 9.14846ZM10.1278 5.21389C9.5901 5.33975 9.05254 5.00554 8.92667 4.4678C8.80085 3.93016 9.1342 3.39261 9.67178 3.26663L10.1278 5.21389Z"/><path d="M0.292734 0.292734C0.65885 -0.0733816 1.23785 -0.0959754 1.63063 0.224375L1.7068 0.292734L23.7068 22.2927L23.7752 22.3689C24.0955 22.7617 24.0729 23.3407 23.7068 23.7068C23.3407 24.0729 22.7617 24.0955 22.3689 23.7752L22.2927 23.7068L0.292734 1.7068L0.224375 1.63063C-0.0959754 1.23785 -0.0733816 0.65885 0.292734 0.292734Z"/></svg>